<?xml version="1.0" standalone="no"?>
<!DOCTYPE svg PUBLIC "-//W3C//DTD SVG 20010904//EN"
 "http://www.w3.org/TR/2001/REC-SVG-20010904/DTD/svg10.dtd">
<svg version="1.0" xmlns="http://www.w3.org/2000/svg"
 width="1080.000000pt" height="1080.000000pt" viewBox="0 0 1080.000000 1080.000000"
 preserveAspectRatio="xMidYMid meet">

<g transform="translate(0.000000,1080.000000) scale(0.100000,-0.100000)"
fill="#000000" stroke="none">
<path d="M0 5400 l0 -5400 5400 0 5400 0 0 5400 0 5400 -5400 0 -5400 0 0
-5400z m5564 4780 c27 -13 69 -43 94 -67 26 -24 51 -43 57 -43 6 0 24 -13 39
-29 50 -52 68 -163 46 -282 -7 -35 -7 -56 0 -63 32 -32 -14 -222 -58 -241 -12
-5 -27 -25 -33 -45 -6 -19 -24 -61 -40 -93 -26 -52 -28 -63 -19 -97 6 -21 16
-42 23 -47 19 -16 161 -68 276 -102 58 -17 107 -33 109 -36 7 -7 -28 -56 -82
-114 -103 -108 -251 -193 -406 -232 -117 -30 -298 -23 -415 15 -103 33 -218
101 -298 176 -63 59 -124 136 -115 145 2 3 49 18 104 34 54 17 142 47 194 68
85 35 97 43 114 77 l19 38 -31 62 c-18 33 -37 85 -44 114 -6 28 -15 52 -20 52
-12 0 -54 93 -68 150 -13 51 -1 100 25 100 11 0 13 5 5 26 -16 42 -11 130 10
188 41 110 118 185 247 242 69 31 86 34 148 31 47 -2 86 -11 119 -27z m-121
-1772 c34 -17 46 -39 47 -80 0 -28 -7 -42 -31 -62 -17 -14 -41 -26 -54 -26
-13 0 -37 12 -54 26 -78 66 2 190 92 142z m22 -273 c54 -53 16 -145 -58 -145
-52 0 -87 32 -87 81 0 53 35 89 85 89 25 0 44 -8 60 -25z m-3300 -174 c26 -12
69 -40 95 -64 25 -23 60 -49 77 -59 63 -33 90 -133 72 -271 -8 -68 -8 -91 1
-103 30 -35 -23 -219 -65 -230 -16 -4 -25 -15 -29 -37 -3 -18 -20 -60 -37 -94
-33 -66 -35 -116 -4 -146 15 -16 169 -74 285 -108 107 -31 111 -37 67 -96
-138 -188 -373 -303 -620 -303 -137 0 -233 22 -356 82 -92 44 -116 61 -203
147 -92 92 -115 127 -85 135 246 72 380 127 396 162 16 37 14 59 -14 112 -13
26 -30 70 -37 97 -6 28 -20 60 -31 72 -25 29 -67 146 -67 188 0 22 7 39 20 48
18 13 19 18 8 68 -22 104 41 242 147 327 44 35 133 80 190 95 40 11 142 -1
190 -22z m6796 2 c25 -11 68 -40 96 -64 27 -24 63 -51 80 -60 54 -29 68 -77
69 -229 0 -74 4 -147 8 -162 5 -18 2 -53 -9 -98 -18 -72 -46 -120 -71 -120 -8
0 -14 -7 -14 -16 0 -8 -16 -49 -35 -91 -37 -81 -42 -107 -24 -147 15 -32 124
-78 327 -136 40 -12 72 -26 72 -33 0 -24 -108 -144 -176 -196 -79 -59 -183
-112 -269 -136 -33 -9 -116 -19 -185 -22 -105 -4 -139 -2 -214 16 -163 39
-339 150 -436 276 -23 30 -41 58 -38 60 2 3 44 16 94 30 114 34 290 102 309
121 28 29 29 79 1 126 -14 23 -32 69 -40 100 -8 32 -24 67 -35 79 -26 28 -61
132 -61 180 0 26 6 42 20 52 17 12 18 18 9 53 -28 98 32 251 128 329 66 54 98
72 173 97 68 22 158 19 221 -9z m-3493 -89 c30 -35 30 -87 -3 -119 -52 -53
-145 -16 -145 57 0 87 91 125 148 62z m-25 -226 c34 -17 46 -39 47 -80 0 -28
-7 -42 -31 -62 -17 -14 -41 -26 -54 -26 -13 0 -37 12 -54 26 -79 66 2 191 92
142z m22 -273 c54 -53 16 -145 -58 -145 -52 0 -87 32 -87 81 0 53 35 89 85 89
25 0 44 -8 60 -25z m3 -261 c50 -56 12 -144 -63 -144 -98 0 -118 138 -25 173
26 10 64 -3 88 -29z m-2411 -134 c77 -47 38 -153 -57 -153 -38 0 -68 27 -76
68 -8 42 9 73 49 90 42 19 46 18 84 -5z m4768 6 c38 -16 55 -42 55 -84 0 -67
-96 -100 -148 -52 -37 35 -24 116 22 138 28 14 32 14 71 -2z m-4534 -125 c58
-58 23 -141 -60 -141 -94 0 -111 130 -21 163 32 12 53 6 81 -22z m4336 -4 c12
-12 25 -36 29 -54 14 -72 -95 -114 -151 -58 -35 34 -33 78 5 117 26 26 36 29
63 24 18 -4 42 -17 54 -29z m-4124 -98 c26 -12 47 -47 47 -78 0 -31 -49 -71
-86 -71 -46 0 -63 8 -79 41 -21 40 -19 57 14 90 31 31 64 36 104 18z m3905
-25 c45 -51 2 -134 -67 -134 -86 1 -120 98 -53 151 35 27 88 20 120 -17z
m-3662 -108 c59 -50 20 -146 -59 -146 -36 1 -58 14 -75 47 -19 35 -14 63 17
94 37 36 79 38 117 5z m3436 -6 c25 -26 29 -36 24 -62 -15 -73 -88 -102 -140
-55 -56 50 -21 147 54 147 22 0 41 -10 62 -30z m-3207 -105 c41 -40 33 -105
-16 -130 -51 -27 -92 -16 -117 32 -31 58 7 123 73 123 25 0 44 -8 60 -25z
m2980 0 c50 -49 17 -145 -50 -145 -33 0 -81 24 -89 45 -23 62 16 125 79 125
25 0 44 -8 60 -25z m-1255 -70 c103 -15 254 -57 277 -77 36 -30 35 -56 -9
-154 -51 -114 -55 -116 -182 -86 -196 47 -301 50 -413 11 -74 -25 -137 -73
-178 -135 -60 -91 -71 -84 137 -84 130 0 188 -4 196 -12 7 -7 12 -42 12 -88 0
-46 -5 -81 -12 -88 -9 -9 -72 -12 -220 -12 l-208 0 0 -45 0 -45 204 0 c173 0
207 -2 220 -16 20 -19 23 -163 4 -182 -8 -8 -67 -12 -200 -12 -103 0 -188 -4
-188 -8 0 -17 73 -129 106 -163 107 -110 295 -135 550 -73 104 25 108 25 131
7 30 -22 95 -167 91 -201 -4 -33 -38 -57 -125 -87 -222 -77 -465 -67 -668 30
-162 76 -255 175 -351 372 l-55 113 -98 0 c-122 0 -126 4 -126 107 0 94 10
103 112 103 l73 0 0 45 0 45 -79 0 c-59 0 -82 4 -92 16 -18 22 -23 123 -7 154
13 24 19 25 117 30 l103 5 37 85 c101 235 273 381 511 434 129 29 199 31 330
11z m-1515 -31 c19 -8 45 -55 45 -83 0 -32 -41 -71 -82 -78 -30 -4 -41 -1 -62
20 -37 37 -36 97 0 126 26 21 67 27 99 15z m2539 -15 c36 -29 37 -89 0 -126
-21 -21 -32 -24 -62 -20 -41 7 -82 46 -82 78 0 26 26 76 42 82 30 12 77 6 102
-14z m-4559 -1358 c26 -12 69 -40 95 -64 25 -23 60 -49 77 -59 63 -33 90 -133
72 -271 -8 -68 -8 -91 1 -103 30 -35 -23 -219 -65 -230 -17 -4 -25 -15 -29
-40 -4 -18 -20 -59 -36 -90 -33 -62 -35 -76 -19 -122 9 -28 22 -36 113 -71 57
-22 145 -51 196 -65 51 -14 95 -28 98 -30 10 -10 -84 -121 -148 -174 -149
-124 -297 -181 -486 -189 -155 -7 -243 11 -379 77 -106 52 -187 115 -267 210
-35 41 -44 58 -36 67 6 7 17 13 24 13 22 0 227 68 301 100 97 41 113 82 68
168 -13 26 -30 70 -37 97 -6 28 -20 60 -31 72 -24 27 -67 145 -67 183 0 17 9
39 20 50 17 17 18 24 8 72 -22 103 42 243 147 325 45 35 139 83 190 97 40 10
142 -2 190 -23z m6787 1 c26 -11 67 -39 92 -62 25 -24 60 -50 78 -59 58 -29
73 -77 74 -231 0 -74 4 -147 8 -162 5 -18 2 -53 -9 -98 -18 -72 -46 -120 -71
-120 -8 0 -14 -8 -14 -18 0 -10 -16 -50 -35 -91 -38 -80 -42 -108 -21 -149 12
-23 36 -35 143 -74 70 -25 153 -51 183 -59 86 -20 87 -25 30 -97 -105 -128
-257 -223 -425 -263 -75 -18 -110 -20 -215 -16 -71 3 -151 12 -185 21 -140 39
-298 142 -391 255 -30 36 -54 68 -54 73 0 4 19 12 43 18 66 17 164 50 263 87
120 46 139 81 90 166 -14 23 -32 68 -40 99 -8 32 -24 67 -35 79 -26 28 -61
132 -61 180 0 26 6 42 20 52 17 12 18 18 9 53 -28 98 32 251 128 329 66 54 98
72 173 97 68 23 158 19 222 -10z m-4752 -122 c27 -27 34 -64 18 -96 -27 -57
-93 -69 -138 -24 -26 26 -26 80 1 114 26 33 88 37 119 6z m2529 -6 c21 -26 27
-67 15 -99 -8 -19 -55 -45 -83 -45 -32 0 -71 41 -78 82 -4 30 -1 41 20 62 37
37 97 36 126 0z m-2751 -121 c32 -35 29 -78 -8 -115 -26 -25 -35 -29 -63 -23
-46 10 -77 42 -77 80 0 83 91 120 148 58z m2980 1 c46 -52 18 -123 -55 -139
-28 -6 -37 -2 -63 23 -36 36 -39 77 -10 115 34 43 89 43 128 1z m-3213 -109
c32 -31 34 -91 5 -123 -45 -48 -150 -12 -150 50 1 80 92 127 145 73z m3432 1
c22 -19 28 -32 28 -66 0 -53 -29 -80 -86 -80 -113 0 -105 168 8 170 12 0 34
-11 50 -24z m-3656 -115 c33 -33 35 -47 15 -95 -28 -68 -130 -67 -153 1 -32
93 69 162 138 94z m3882 4 c51 -52 42 -115 -19 -141 -46 -19 -88 -5 -109 37
-19 36 -19 59 1 87 32 46 89 54 127 17z m-4130 -106 c35 -16 51 -51 43 -93
-13 -66 -93 -90 -141 -41 -28 27 -32 63 -10 105 21 41 60 51 108 29z m4359
-19 c25 -26 29 -36 24 -63 -18 -96 -154 -104 -172 -11 -17 90 82 139 148 74z
m-4568 -111 c57 -45 19 -149 -54 -149 -37 0 -90 47 -90 80 0 26 25 77 42 83
30 12 77 6 102 -14z m4791 -4 c35 -34 33 -78 -4 -116 -58 -58 -141 -23 -141
60 0 31 6 44 26 60 37 29 89 27 119 -4z m-2387 -151 c30 -35 30 -87 -3 -119
-52 -53 -145 -16 -145 57 0 87 91 125 148 62z m-25 -226 c34 -17 46 -39 47
-80 0 -28 -7 -42 -31 -62 -17 -14 -41 -26 -54 -26 -13 0 -37 12 -54 26 -79 66
2 191 92 142z m22 -273 c17 -16 25 -35 25 -60 0 -25 -8 -44 -25 -60 -16 -17
-35 -25 -60 -25 -25 0 -44 8 -60 25 -17 16 -25 35 -25 60 0 76 92 114 145 60z
m-31 -235 c38 -14 50 -47 36 -98 -13 -52 -47 -77 -90 -67 -38 8 -60 39 -60 85
0 36 25 70 60 83 22 8 26 8 54 -3z m9 -252 c54 -28 65 -98 22 -138 -55 -52
-145 -15 -145 60 0 69 64 110 123 78z m22 -273 c17 -16 25 -35 25 -60 0 -25
-8 -44 -25 -60 -16 -17 -35 -25 -60 -25 -25 0 -44 8 -60 25 -17 16 -25 35 -25
60 0 76 92 114 145 60z m106 -454 c24 -12 60 -38 80 -57 19 -19 51 -43 70 -53
72 -38 106 -168 80 -305 -8 -43 -8 -63 0 -72 16 -19 14 -73 -6 -141 -17 -60
-39 -93 -61 -93 -7 0 -18 -19 -25 -42 -6 -24 -24 -69 -41 -100 -29 -55 -30
-58 -16 -100 14 -43 15 -43 124 -85 61 -23 146 -51 189 -62 44 -12 83 -25 89
-31 19 -19 -103 -151 -202 -219 -84 -57 -171 -98 -259 -123 -101 -28 -283 -30
-388 -5 -95 24 -217 85 -301 150 -68 54 -159 156 -159 179 0 7 11 16 25 20 81
23 275 90 323 112 49 22 57 29 66 64 10 35 8 45 -15 86 -14 26 -33 72 -41 103
-8 32 -25 70 -38 85 -29 34 -57 118 -59 171 0 30 4 43 21 54 19 13 20 18 11
45 -17 48 -4 147 28 212 46 95 123 163 241 212 76 32 196 30 264 -5z"/>
</g>
</svg>
